<?xml version="1.0" encoding="utf-8"?>
<!-- Generator: Adobe Illustrator 17.1.0, SVG Export Plug-In . SVG Version: 6.00 Build 0)  -->
<!DOCTYPE svg PUBLIC "-//W3C//DTD SVG 1.1//EN" "http://www.w3.org/Graphics/SVG/1.1/DTD/svg11.dtd">
<svg version="1.1" id="Layer_1" xmlns="http://www.w3.org/2000/svg" xmlns:xlink="http://www.w3.org/1999/xlink" x="0px" y="0px"
	 viewBox="0 0 83 83" enable-background="new 0 0 83 83" xml:space="preserve">
<g id="Layer_3">
	<path d="M20.2,3.7h10.9l13,36.3H33.2l-2.3-6.5H20.2L18.2,40H7.3L20.2,3.7z M28.3,25.3l-2.9-9.3l-2.6,9.3H28.3z"/>
	<path d="M44.6,3.7h10.9v26.7h17.6v9.9H44.6L44.6,3.7L44.6,3.7z"/>
	<path d="M8.1,41.6h15c2.3,0,4.7,0.5,6.7,1.3c2.1,0.8,3.6,2.1,5.2,3.6c1.3,1.6,2.6,3.6,3.4,5.7c0.8,2.3,1.3,4.9,1.3,7.5
		c0,3.1-0.5,6-1.6,8.6c-1,2.6-2.6,4.4-4.4,6c-1.3,1-2.9,1.8-4.7,2.6c-1.8,0.5-3.6,0.8-6,0.8h-15V41.6z M22.1,68.5
		c2.3,0,4.1-0.8,5.2-2.1c1-1.6,1.8-3.6,1.8-6.2s-0.5-4.9-1.8-6.5s-2.9-2.3-5.2-2.3h-4.1v17.1L22.1,68.5L22.1,68.5z"/>
	<path d="M57.6,78.9c-2.9,0-5.2-0.5-7.5-1.3c-2.3-1-4.1-2.3-5.7-3.9c-1.6-1.8-2.9-3.6-3.6-6c-0.8-2.3-1.3-4.9-1.3-7.5
		s0.5-5.2,1.3-7.5c0.8-2.3,2.1-4.4,3.6-6c1.6-1.8,3.4-3.1,5.7-3.9c2.3-1,4.7-1.3,7.5-1.3s5.2,0.5,7.5,1.3c2.3,1,4.1,2.3,5.7,3.9
		c1.6,1.8,2.9,3.6,3.6,6c0.8,2.3,1.3,4.9,1.3,7.5s-0.5,5.2-1.3,7.5c-0.8,2.3-2.1,4.4-3.6,6c-1.6,1.8-3.4,3.1-5.7,3.9
		C62.8,78.4,60.2,78.9,57.6,78.9z M57.6,69.6c1.3,0,2.3-0.3,3.1-0.8c1-0.5,1.6-1.3,2.3-2.1c0.5-0.8,1-1.8,1.3-3.1
		c0.3-1.3,0.5-2.6,0.5-3.9s-0.3-2.6-0.5-3.9c-0.3-1.3-0.8-2.3-1.3-3.1c-0.5-0.8-1.3-1.6-2.3-2.1c-1-0.5-2.1-0.8-3.1-0.8
		c-1.3,0-2.3,0.3-3.1,0.8c-1,0.5-1.6,1.3-2.3,2.1c-0.5,0.8-1,1.8-1.3,3.1c-0.3,1.3-0.5,2.6-0.5,3.9s0.3,2.6,0.5,3.9
		c0.3,1.3,0.8,2.3,1.3,3.1c0.5,0.8,1.3,1.6,2.3,2.1C55.2,69.3,56.3,69.6,57.6,69.6z"/>
</g>
</svg>
