<?xml version="1.0" encoding="utf-8"?>
<!-- Generator: Adobe Illustrator 17.1.0, SVG Export Plug-In . SVG Version: 6.00 Build 0)  -->
<!DOCTYPE svg PUBLIC "-//W3C//DTD SVG 1.1//EN" "http://www.w3.org/Graphics/SVG/1.1/DTD/svg11.dtd">
<svg version="1.1" id="Layer_1" xmlns="http://www.w3.org/2000/svg" xmlns:xlink="http://www.w3.org/1999/xlink" x="0px" y="0px"
	 viewBox="9 259 1362 456" enable-background="new 9 259 1362 456" xml:space="preserve">
<path fill="#FFFFFF" d="M192.2,329.5h98.4l117.2,328.1h-98.4L288.3,599h-96.1l-18.8,58.6H75L192.2,329.5z M264.8,524l-25.8-84.4
	L215.6,524H264.8z"/>
<path fill="#FFFFFF" d="M417.5,327.2h98.4v241.4h159.4v89.1H417.5L417.5,327.2L417.5,327.2z"/>
<path fill="#FFFFFF" d="M686.3,332.8h135.9c21.1,0,42.2,4.7,60.9,11.7c18.8,7,32.8,18.8,46.9,32.8c11.7,14.1,23.4,32.8,30.5,51.6
	c7,21.1,11.7,44.5,11.7,68c0,28.1-4.7,53.9-14.1,77.3s-23.4,39.8-39.8,53.9c-11.7,9.4-25.8,16.4-42.2,23.4c-16.4,4.7-32.8,7-53.9,7
	H686.3V332.8z M812.9,576.6c21.1,0,37.5-7,46.9-18.8c9.4-14.1,16.4-32.8,16.4-56.2c0-23.4-4.7-44.5-16.4-58.6s-25.8-21.1-46.9-21.1
	h-37.5v154.7L812.9,576.6L812.9,576.6z"/>
<path fill="#FFFFFF" d="M1145,670.3c-25.8,0-46.9-4.7-68-11.7c-21.1-9.4-37.5-21.1-51.6-35.2c-14.1-16.4-25.8-32.8-32.8-53.9
	s-11.7-44.5-11.7-68c0-23.4,4.7-46.9,11.7-68s18.8-39.8,32.8-53.9c14.1-16.4,30.5-28.1,51.6-35.2c21.1-9.4,42.2-11.7,68-11.7
	c25.8,0,46.9,4.7,68,11.7c21.1,9.4,37.5,21.1,51.6,35.2c14.1,16.4,25.8,32.8,32.8,53.9c7,21.1,11.7,44.5,11.7,68
	c0,23.4-4.7,46.9-11.7,68c-7,21.1-18.8,39.8-32.8,53.9c-14.1,16.4-30.5,28.1-51.6,35.2C1191.8,665.7,1168.4,670.3,1145,670.3z
	 M1145,586c11.7,0,21.1-2.3,28.1-7c9.4-4.7,14.1-11.7,21.1-18.8c4.7-7,9.4-16.4,11.7-28.1s4.7-23.4,4.7-35.2s-2.3-23.4-4.7-35.2
	s-7-21.1-11.7-28.1c-4.7-7-11.7-14.1-21.1-18.8c-9.4-4.7-18.8-7-28.1-7c-11.7,0-21.1,2.3-28.1,7c-9.4,4.7-14.1,11.7-21.1,18.8
	c-4.7,7-9.4,16.4-11.7,28.1c-2.3,11.7-4.7,23.4-4.7,35.2s2.3,23.4,4.7,35.2c2.3,11.7,7,21.1,11.7,28.1c4.7,7,11.7,14.1,21.1,18.8
	C1123.9,583.6,1133.2,586,1145,586z"/>
</svg>
