<?xml version="1.0" encoding="utf-8"?>
<!-- Generator: Adobe Illustrator 17.1.0, SVG Export Plug-In . SVG Version: 6.00 Build 0)  -->
<!DOCTYPE svg PUBLIC "-//W3C//DTD SVG 1.1//EN" "http://www.w3.org/Graphics/SVG/1.1/DTD/svg11.dtd">
<svg version="1.1" xmlns="http://www.w3.org/2000/svg" xmlns:xlink="http://www.w3.org/1999/xlink" x="0px" y="0px"
	 viewBox="0 0 32 32" enable-background="new 0 0 32 32" xml:space="preserve">
<g id="Layer_2" display="none">
	<rect x="-177.5" y="-230.4" display="inline" stroke="#FFFFFF" stroke-miterlimit="10" width="1103.9" height="444"/>
</g>
<g id="Layer_1" display="none">
</g>
<g id="Layer_3">
	<path d="M8.2,1.5h4.2l5,14h-4.2L12.3,13H8.2l-0.8,2.5H3.2L8.2,1.5z M11.3,9.8l-1.1-3.6L9.2,9.8H11.3z"/>
	<path d="M17.6,1.5h4.2v10.3h6.8v3.8h-11V1.5z"/>
	<path d="M3.5,16.1h5.8c0.9,0,1.8,0.2,2.6,0.5c0.8,0.3,1.4,0.8,2,1.4c0.5,0.6,1,1.4,1.3,2.2c0.3,0.9,0.5,1.9,0.5,2.9
		c0,1.2-0.2,2.3-0.6,3.3c-0.4,1-1,1.7-1.7,2.3c-0.5,0.4-1.1,0.7-1.8,1c-0.7,0.2-1.4,0.3-2.3,0.3H3.5V16.1z M8.9,26.5
		c0.9,0,1.6-0.3,2-0.8c0.4-0.6,0.7-1.4,0.7-2.4c0-1-0.2-1.9-0.7-2.5c-0.5-0.6-1.1-0.9-2-0.9H7.3v6.6H8.9z"/>
	<path d="M22.6,30.5c-1.1,0-2-0.2-2.9-0.5c-0.9-0.4-1.6-0.9-2.2-1.5c-0.6-0.7-1.1-1.4-1.4-2.3c-0.3-0.9-0.5-1.9-0.5-2.9
		c0-1,0.2-2,0.5-2.9c0.3-0.9,0.8-1.7,1.4-2.3c0.6-0.7,1.3-1.2,2.2-1.5c0.9-0.4,1.8-0.5,2.9-0.5c1.1,0,2,0.2,2.9,0.5
		c0.9,0.4,1.6,0.9,2.2,1.5c0.6,0.7,1.1,1.4,1.4,2.3c0.3,0.9,0.5,1.9,0.5,2.9c0,1-0.2,2-0.5,2.9c-0.3,0.9-0.8,1.7-1.4,2.3
		c-0.6,0.7-1.3,1.2-2.2,1.5C24.6,30.3,23.6,30.5,22.6,30.5z M22.6,26.9c0.5,0,0.9-0.1,1.2-0.3c0.4-0.2,0.6-0.5,0.9-0.8
		c0.2-0.3,0.4-0.7,0.5-1.2c0.1-0.5,0.2-1,0.2-1.5c0-0.5-0.1-1-0.2-1.5c-0.1-0.5-0.3-0.9-0.5-1.2c-0.2-0.3-0.5-0.6-0.9-0.8
		c-0.4-0.2-0.8-0.3-1.2-0.3c-0.5,0-0.9,0.1-1.2,0.3c-0.4,0.2-0.6,0.5-0.9,0.8c-0.2,0.3-0.4,0.7-0.5,1.2c-0.1,0.5-0.2,1-0.2,1.5
		c0,0.5,0.1,1,0.2,1.5c0.1,0.5,0.3,0.9,0.5,1.2c0.2,0.3,0.5,0.6,0.9,0.8C21.7,26.8,22.1,26.9,22.6,26.9z"/>
</g>
</svg>
